<svg version="1" xmlns="http://www.w3.org/2000/svg" width="100" height="14" fill="#000" viewBox="0 0 2000.000000 249.000000"><path d="M255.5 1.5c-37 5.9-67 26.8-82.5 57.5-12.2 24.1-15 54.5-7.4 80.8 13.4 47.1 55.4 77.5 106.9 77.5 35.5 0 66.5-14.1 87.2-39.7 8-10 16.3-26.6 20-40.1 2.6-9.3 2.8-11.3 2.7-28.5 0-16.9-.2-19.4-2.7-28.5-6.3-23.2-19.5-42.9-38.3-57.1C316.7 4.9 285-3.2 255.5 1.5zm25.7 54.6c17 3.6 31 18.8 35.4 38.5 2.2 10.3 1.5 26.3-1.6 35.2-6.6 18.7-21.4 30.7-39.6 32-13 .9-23.1-2.8-32.9-12-21.1-19.7-22.1-59-2-80.6 10.7-11.6 25.3-16.3 40.7-13.1zM878 1c-11.7 1.2-20.6 3.8-31.8 9.2-16.7 8-28.4 20.9-34.3 37.8-3.4 9.9-3.2 25.7.5 36.5 5.2 15.2 16.1 28.1 30.4 35.8 3.8 2 16.4 7 27.8 11.1 31.9 11.2 34.9 13 34.9 21.1 0 8-6.6 12.5-18.2 12.5-13.6 0-25.9-4.6-42.4-15.5-5.4-3.6-10.6-6.5-11.7-6.5-2.7 0-31.2 37.9-31.2 41.5 0 5.6 20.5 19 39.6 25.8 15.5 5.6 26.2 7.2 47.4 7.2s26.2-.8 40.1-6.5c20.6-8.6 35.8-25.6 40.5-45.6 2.4-10.3 1.5-26.7-1.9-35.6-6.6-17.1-19.8-29.6-40-38-4.5-1.9-16.7-6.3-27-9.8-20.3-6.7-25-9.4-26.2-15.1-2.1-9.5 7.4-14.7 23.3-12.7 12.1 1.5 20.3 4.7 34.8 13.9 1.7 1 3.9 1.7 4.7 1.3 1.5-.5 25.1-29.6 29.2-35.7 2.4-3.8.6-6.7-7.7-12.4-8.7-6-16.7-10.1-26.6-13.7C916.8 2.1 894-.7 878 1zM1076 2.5c-43.4 8.2-75.7 37.4-86.8 78.3-2.3 8.8-2.6 11.4-2.6 28.7-.1 17.8.1 19.6 2.7 28.9 11.3 40.5 40.6 67.6 83.6 77.3 5.4 1.2 12.3 1.7 24.2 1.8l16.5.1 8 5.9c19.1 14.4 46.5 24.3 69.1 24.8l7.6.2 6-29.3c4.6-22.2 5.8-29.5 4.9-30.4-.9-.9-2.9-.7-8.4.8-7.4 1.9-25.8 2.7-27.4 1.1-.4-.4 1.8-3.3 4.9-6.5 31.1-31.5 38.3-85.8 16.6-126.1C1180.7 31.6 1155.3 12 1125 4c-11-2.9-37.5-3.7-49-1.5zm29.9 53.6c16.3 3.7 29.7 18 34.6 36.9 2.4 9.2 1.6 28-1.5 36.8-9.8 27.8-38.4 40-63.3 26.9-23.3-12.2-32.5-48.3-19.2-75.3 9.7-19.8 29.5-29.9 49.4-25.3zM3.5 4.2C2.4 4.8 1.2 5.8.8 6.4c-1 1.4-1 202.8 0 204.2 2 3 5.5 3.4 29.5 3.4 22.6 0 24.7-.1 26.8-1.9l2.4-1.9.3-33.6.3-33.6h31.8c29 0 31.9-.2 33.4-1.8 1.8-2 11-44.7 10.5-48.9l-.3-2.8-37.7-.3L60 89V57.1l42-.3c37.1-.3 42.1-.5 43.6-1.9 1.5-1.6 10.4-41.1 10.4-46.4 0-5.6 2-5.5-77.5-5.5-52.5.1-73.6.4-75 1.2zM409.4 4.4c-1.8 1.4-1.9 3.5-2.2 69.8-.2 43.6.1 71.6.8 77.5 4.3 38.2 33.9 63.3 77.8 65.9 20.2 1.2 38.7-2.2 55.2-10.4 7.9-3.8 11-6.1 18.1-13.2 9.2-9.1 13.7-16.6 18-29.5l2.4-7 .3-75.2c.3-74.6.3-75.2-1.8-77.3-1.9-1.9-3.2-2-27.8-2-20.7 0-26.2.3-27.8 1.4-1.8 1.4-1.9 3.6-2.4 69.8l-.5 68.3-2.7 5.7c-3 6.4-8.7 11.3-14.7 12.5-7.3 1.6-15.6.8-21.3-2-6.1-3-8.8-6.1-11.4-13.3-1.8-4.6-1.9-9.6-2.2-71.9-.3-59.8-.5-67.1-1.9-68.7-1.5-1.6-4-1.8-27.8-1.8-21 0-26.5.3-28.1 1.4zM1234 5c-2.1 2.1-2.1 2.7-1.8 76.8.4 74.5.4 74.7 2.7 82.2 3.7 12.2 8.7 20.6 17.6 29.6 11.2 11.4 23.8 18 41.9 22.1 10.4 2.4 36.4 2.3 47.6-.1 30.8-6.6 51.5-24.2 60-51.1l2.5-8 .3-74.3.3-74.2-2.5-2.5-2.5-2.5h-25.9c-20.7 0-26.2.3-27.8 1.4-1.8 1.4-1.9 3.6-2.4 70.3-.5 67.5-.5 68.9-2.6 73.3-4.4 9.2-11.6 13.3-23.4 13.3-11.8 0-19-4.1-23.4-13.3-2.1-4.4-2.1-5.8-2.6-73.3-.5-66.7-.6-68.9-2.4-70.3-1.6-1.1-7.1-1.4-27.8-1.4-24.6 0-25.9.1-27.8 2zM1477.6 4.5c-1.3 1-10.6 30.6-32.8 104-24.9 82.6-30.7 102.9-29.8 104 1 1.3 6.1 1.5 30.5 1.5 28.2 0 29.3-.1 31.1-2.1 1-1.1 3.9-9.1 6.4-17.7l4.5-15.7 27.1-.3 27-.2 2.8 9.2c1.5 5.1 3.7 12.4 4.8 16.2 3.4 11.3 1.2 10.6 34.8 10.6 27.9 0 29-.1 30-2 .9-1.6-4.7-21.2-29.6-103.8C1562 33.8 1553.3 6 1551.8 4.7c-1.8-1.5-5.1-1.7-37.2-1.7-28.7.1-35.4.3-37 1.5zm46.4 85.8c5.1 16.9 9 31 8.8 31.3-.3.2-8.8.3-19 .2l-18.4-.3 7.8-26c4.3-14.3 8.5-28.4 9.3-31.4.9-2.9 1.8-5.2 2-5 .1.2 4.4 14.3 9.5 31.2zM610.7 5.8c-1.6 1.7-1.7 9.3-1.7 103.4 0 97.1.1 101.6 1.8 103.1 1.6 1.5 5.1 1.7 28.3 1.7 14.9 0 27.1-.4 27.9-1 1.3-.8 1.6-6.1 2-34.7l.5-33.8h19l17.8 33c9.7 18.1 18.7 33.8 20 34.7 2 1.6 5.4 1.8 33.5 1.8 25.9 0 31.4-.2 31.8-1.4.3-.8-9.2-18.3-21-38.9-11.9-20.7-21.6-37.8-21.6-38 0-.2 3-2.2 6.7-4.3 10.3-6 19.2-15.4 24.2-25.5s7.1-19.3 7.1-31.5c0-32.1-21-58.2-54.5-67.6-7.8-2.2-9.6-2.2-64.1-2.6-53.7-.3-56.1-.2-57.7 1.6zm105.9 53.9c5.9 3.2 8.4 7.6 8.4 15s-2.5 11.7-9 15.3c-4.3 2.4-5.3 2.5-25.2 2.8l-20.8.4V56.9l21.3.3c19.6.3 21.5.5 25.3 2.5zM1637.2 5.2c-.9.9-1.2 25.4-1.2 104 0 100.5 0 102.8 1.9 103.8 1.2.6 12.1 1 28.5 1 26.2 0 26.5 0 28-2.2 1.4-1.9 1.6-7 1.6-35V144h18.8l17.3 32.2c9.6 17.8 18.6 33.5 20.1 35.1l2.7 2.7 31.3-.2c28.2-.3 31.3-.5 31.6-2 .2-.9-9.3-18.4-21.1-38.9l-21.5-37.4 6.5-3.8c18.6-11.2 28.7-26.7 31.5-48.5 4.9-38-21.4-70.8-62.6-78.1-8.9-1.6-111.8-1.5-113.4.1zm101.9 52.9c15.6 5.3 17.7 24.5 3.4 31.8-4.7 2.5-5.7 2.6-25.2 2.9l-20.3.3V57h19.4c11.8 0 20.6.4 22.7 1.1zM1844.6 6.2c-1.4 2-1.6 13.4-1.6 103 0 99.5 0 100.8 2 102.8s3.3 2 70.3 2c63.9 0 68.5-.1 69.9-1.8.9-1 3.6-11.4 6.4-24.9 3.9-19.2 4.5-23.5 3.4-24.7-1.1-1.4-6.8-1.6-46.6-1.6H1903v-25h31.8c23.9 0 32.2-.3 33.5-1.3 2.4-1.8 12.3-49.3 10.6-51.3-.9-1.2-7.6-1.4-38.5-1.4H1903V58h40c42.3 0 46-.4 47.4-4.7.3-1 2.6-11.6 5.1-23.6 3.4-16.5 4.3-22.3 3.5-23.8-1-1.9-2.9-1.9-77-1.9h-75.9l-1.5 2.2z"/></svg>