<svg version="1" xmlns="http://www.w3.org/2000/svg" fill="fff" width="64" height="80" viewBox="0 0 1335.000000 1661.000000"><path d="M421.5 29.1C310.8 37.3 209 87.9 135.6 171c-49.1 55.6-82.3 122.3-97 194.6C8.4 514 59.6 666.5 173 766.4c56.2 49.5 121.9 82.2 194.7 97 23.4 4.8 57.8 8.6 77.8 8.6h8l-10.6-10.7c-45-45.9-73.2-102.1-83-165.4-3.3-20.9-3.3-59.9 0-80.8 10.2-66.1 40-123.5 89.2-171.7 20.8-20.3 38.4-33.9 63.4-48.9 45.1-27.2 97.5-44.4 154-50.7 6.9-.7 23.2-1.3 38.5-1.3s31.6.6 38.5 1.3c40.9 4.6 78.2 14.4 114.4 30.1 5.2 2.3 9.6 4 9.7 3.8.4-.4-5.2-26.5-8-37.2-16.3-61.5-48.1-120.8-91.2-169.5C724 120.6 668.9 82 606 57c-56.1-22.3-123.4-32.4-184.5-27.9zm92.4 137.4c20.6 4.9 36.7 21 41.6 41.6 6.9 29.4-11.8 59.3-41.6 66.4-29.4 6.9-59.3-11.8-66.4-41.6-4.3-18.6 1.2-37.6 15-51.4 13.8-13.8 32.8-19.3 51.4-15zM1039.5 491.1c-59.6 7.5-110.2 39.5-145.1 91.6-39.2 58.4-44.4 142.1-13 206.8 21 43 61.1 81.6 104.1 100 25.8 11 49.2 15.5 80.7 15.5 27.7 0 49.9-3.8 73.3-12.5 41.5-15.4 80.5-48.8 105-90.1 33.8-56.8 36.7-135.9 7.1-196.9-15.8-32.5-44.4-64.5-75.9-85-23.6-15.3-54.3-26-84.2-29.5-10.6-1.2-42-1.1-52 .1zm43 74c29.2 3.6 56.1 17.1 76.3 38.3 17.4 18.4 27.9 37.2 33.9 61.3 2.6 10.1 2.7 12.3 2.8 32.3 0 23.2-.9 30-6.1 45.7-10 29.9-34.8 58.9-63.4 74.1-33.5 17.9-79.9 18.8-114.6 2.3-14.4-6.9-24.2-13.9-36.4-26.1-19.1-19-30.5-39.8-36.2-66.3-2.8-13.2-3.1-43.4-.5-56.2 4-19.1 11.5-36.6 22.4-51.7 11.7-16.3 31.1-33.1 48.2-41.8 21-10.5 48.4-15 73.6-11.9z"/><path d="M542 697v203l37.8-.2 37.7-.3.3-71.8.2-71.7H648.7l47.4 71.7 47.5 71.8 45.2.3c24.9.1 45.2-.1 45.2-.5 0-.5-23-33.3-51-73.1-28.1-39.8-51-72.7-51-73.2 0-.4 2.1-1.1 4.8-1.5 6.2-.9 22-6 30.1-9.6 21-9.5 40.7-29.3 52.5-52.7 20-39.8 19-93.9-2.6-133-15.4-28.1-38.9-47.4-67.8-55.8-20-5.8-18.9-5.8-116.7-6.1l-90.3-.4V697zm173.5-133.5c13.8 3.6 24.4 13.2 31.9 28.8 5.5 11.3 7.6 20.7 7.6 33.2 0 12.4-2.1 21.9-7.3 32.5-4.9 10-14.3 20.3-22.4 24.4-10.5 5.3-14 5.6-62.5 5.6H618V562h45.8c37.9 0 46.8.3 51.7 1.5zM538 1135.5V1322h213v-62H608l-.2-155.3-.3-155.2-34.7-.3-34.8-.2v186.5zM787 1135.5V1322h213v-62H856V949h-69v186.5zM1035.7 949.7c-.4.3-.7 84.3-.7 186.5V1322h237v-62h-167v-91h141v-62h-141v-96h161v-62h-114.8c-63.2 0-115.2.3-115.5.7zM565.6 1374.7c-.8 4.6-30.6 247-30.6 248.3 0 .6 8.9 1 23.4 1h23.3l.5-3.2c.3-1.8 4.8-39.2 9.9-83.1 5.1-43.8 9.6-79.7 9.9-79.7.3 0 15.1 30.9 33 68.5l32.4 68.5 19-.2 18.9-.3 32.3-68.4c17.8-37.6 32.5-68.5 32.7-68.7.2-.2 4.5 36 9.5 80.4 5.1 44.4 9.5 81.9 9.8 83.5l.6 2.7 47.1-.2 47.2-.3 11.4-30.3 11.4-30.2 47.1.2 47 .3 11.5 30.3 11.4 30.2h84.8l1.8-4.3c1-2.3 6.2-16 11.6-30.4l9.8-26.3h94.2l10.9 29.3c6 16 11.4 29.8 11.9 30.4.7 1 6.9 1.3 24.8 1.3 20.3 0 23.9-.2 23.9-1.5s-92.4-248.7-93.6-250.7c-.3-.4-11.7-.8-25.4-.8h-24.9l-1.9 5.2c-1.1 2.9-20.6 54.8-43.2 115.3-22.7 60.5-41.5 110.6-41.9 111.2-.3.7-20.2-51-44.2-115l-43.5-116.2h-50.6l-43.4 116c-52.1 139.3-48.7 130.2-49.1 129-.1-.6-6.8-54.5-14.8-120-7.9-65.5-14.7-120.5-15-122.3l-.6-3.2-20.1.2-20 .3-39.5 84c-21.7 46.2-39.7 84.3-40.1 84.7-.4.3-18.2-36.6-39.6-82-21.4-45.5-39.5-83.7-40.3-85-1.3-2.2-1.7-2.2-20.7-2.2h-19.4l-.6 3.7zM985 1520.2c0 .5-13.7.8-30.5.8-18.9 0-30.5-.4-30.5-1 0-1.1 29-91.1 29.8-92.5.5-.8 31.1 90.3 31.2 92.7zm224.5-2.2l.7 3h-30.6c-16.8 0-30.6-.3-30.6-.8 0-.7 28.5-89.4 29.6-92.2.6-1.3 29.2 82.1 30.9 90z"/></svg>