<svg version="1" xmlns="http://www.w3.org/2000/svg" width="100" height="35" fill="#000" viewBox="0 0 867.000000 294.000000"><path d="M130.1 1C97 5.2 67.1 19.8 43.5 43.5 22.2 64.7 9.3 88.7 2.9 119c-3.2 15-3.2 41 0 56 6.4 30.3 19.3 54.3 40.6 75.5 21 21.1 45.4 34.2 75.5 40.6 13.8 2.9 39.6 3.2 54 .6 60.6-11.1 108.8-59.5 119.1-119.5C304.4 100.4 262.3 30.5 193 7.6c-5.8-1.9-14.5-4.2-19.5-5.1C162.4.5 140-.2 130.1 1zm39.5 15.5c13.5 2.4 24.1 5.9 37.1 12.5 30.7 15.4 54.2 41.8 65.6 73.6 5.2 14.6 7.2 26.5 7.2 44.4s-2 29.8-7.2 44.4c-16 44.5-55.9 78-102.7 86.1-11.5 2-33.5 1.9-45.1-.1-41.3-7.1-77.2-34-96.4-72.2-4.5-8.9-9.7-25.1-11.6-35.6-2-11.5-2-33.7 0-45.2C26 70 69.4 26.5 124 16.6c10.5-1.9 34.7-2 45.6-.1z"/><path d="M127.5 30.5c-26.7 5.1-47.7 16.4-66 35.6-34 35.6-42.1 88-20.5 132.4 2.6 5.5 6.3 12 8 14.4l3.2 4.4 21.2-20.9c11.6-11.5 25.7-25.4 31.4-30.9l10.2-10 46.4 46.4c43.9 43.9 46.4 46.3 48.6 45.1 2.2-1.2.1-3.4-46.6-50.1L114.5 148l-29.7 29.7L55 207.5l-4.5-4.5-4.5-4.5 33.7-33.7c18.6-18.6 34.2-33.8 34.8-33.8.5 0 25.1 24.1 54.5 53.5 50.6 50.6 53.7 53.5 55.5 52.1 1.9-1.4-.9-4.4-54-57.6l-56-56-31.2 31.2L52 185.5l-4.6-4.6-4.5-4.6 71-70.5L185 35.2l-3.2-1.1c-14.4-4.6-39.7-6.3-54.3-3.6z"/><path d="M160.4 77.1L123.5 114l56.1 56.1 56 56 6.2-8.3c23.2-31.1 29.8-71.8 17.5-108.5-6.8-20.6-21-40.9-37.7-54.2-5.8-4.6-19-12.9-22.7-14.3-1.1-.5-12.1 9.8-38.5 36.3zM203.5 51l3.9 4-33.9 34-34 34-4.2-4.2-4.3-4.3 33.7-33.7C183.3 62.2 198.7 47 199 47c.3 0 2.4 1.8 4.5 4zm3 22l3.9 4-29.4 29.5-29.5 29.5-4.2-4.2-4.3-4.3 29.2-29.2C188.3 82.2 201.7 69 202 69c.3 0 2.4 1.8 4.5 4zM87.5 200l-27 27 4.5 4.6c23.5 24.4 62.8 37.3 98.6 32.3 8.2-1.1 22.5-5 28.7-7.7l3.8-1.7-40.8-40.8-40.8-40.7-27 27zM348 101.5v8.5h26l.2 37.2.3 37.3 9.8.3 9.7.3V110h27V93h-73v8.5zM455 138.9V185h19v-33h14.5l8.9 16.1c4.8 8.8 9.4 16.3 10 16.5.7.3 5.8.3 11.5.2l10.2-.3-6.8-11.5c-3.8-6.3-8.3-14.1-10.1-17.2l-3.3-5.7 3.4-1.5c5.1-2.1 11.2-8 13.8-13.4 3.1-6.4 3.2-18.7.2-25.3-2.6-5.8-8.3-11.5-14.2-14.3-4.3-1.9-6.6-2.1-30.8-2.4l-26.3-.3v46zm43.9-28.3c4 .8 8.6 5.4 9.4 9.2.9 4.7-1 9.8-4.6 12.4-2.9 2.1-4.5 2.3-16.4 2.6l-13.3.4V110h10.9c6 0 12.3.3 14 .6zM579 133.2c-8.5 22.1-16.5 42.8-17.7 46l-2.2 5.8h22.5l2.9-8 2.9-8h39.4l2.8 8 2.7 8H655l-1.3-3.3c-.7-1.7-8.7-22.4-17.8-45.9L619.5 93h-25L579 133.2zm35-1.5c3.5 9.8 6.5 18.4 6.8 19 .3 1-2.9 1.3-13.8 1.3s-14.1-.3-13.8-1.3c.3-.6 3.4-9.2 6.9-18.9 3.5-9.8 6.6-17.8 6.9-17.8.3 0 3.4 8 7 17.7zM687 139v46h19v-14.3l.1-14.2 3.7-4.2 3.7-4.3 13.9 18.5 13.9 18.5h11.9c6.5 0 11.8-.2 11.8-.5s-8.5-11.2-19-24.1c-10.4-13-19-23.9-19-24.3 0-.4 8.1-10.2 18-21.9L763 93h-12.2l-12.3.1-16 20.2-16 20.2-.3-20.3L706 93h-19v46zM793 101.5v8.5h27l.2 37.2.3 37.3 9.8.3 9.7.3V110h27V93h-74v8.5z"/></svg>