<svg version="1" xmlns="http://www.w3.org/2000/svg" width="100" height="17" fill="#000" viewBox="0 0 590.000000 100.000000"><path d="M1.2 37.7c.3 36.3.3 36.9 2.7 42.1C10.3 94 28.4 101.9 47.8 99c13.6-2.1 23.5-9 28.6-19.9 2-4.4 2.1-6.3 2.4-41.4L79.1.9l-9.8.3-9.8.3-.5 35c-.5 34.2-.6 35.1-2.8 38.6-3 4.9-7 6.4-16.7 6.4-8.7-.1-12.4-1.5-16-6.3-1.9-2.6-2-4.7-2.5-38.2l-.5-35.5-9.8-.3L.9.9l.3 36.8zM92 49.4V98h19V71.5c0-14.6.2-26.5.5-26.5s13.4 12 29.1 26.7c15.7 14.8 29.2 26.9 30 27.1 1.2.3 1.4-6.9 1.4-48.8V.9l-9.2.3-9.3.3-.5 27-.5 26.9-28.8-26.9C107.9 13.6 94.3 1.4 93.5 1.2 92.2.9 92 7.2 92 49.4zM183.7 1.7c-.4.3-.7 4.4-.7 9V19h28v79h20V19h27V1h-36.8c-20.3 0-37.2.3-37.5.7zM289.1 2.7C287.6 5.6 248 96.8 248 97.4c0 .3 4.2.6 9.4.6h9.3l2-5.3 2-5.2 19.7-.3 19.7-.2 2.4 5.5L315 98h10c5.5 0 10-.3 10-.8.1-1.5-43.4-96.2-44.1-96.2-.5 0-1.2.8-1.8 1.7zm10.3 58.5c2 4.8 3.6 8.9 3.6 9.2 0 .3-5.6.6-12.5.6s-12.5-.2-12.5-.5 2-5.4 4.4-11.3c2.4-5.9 5.2-13.3 6.2-16.5l1.8-5.9 2.7 7.9c1.4 4.3 4.3 11.7 6.3 16.5zM346 49.5V98h18.9l.3-10.8.3-10.7 10.5-.6c19.1-1.2 30.5-7.9 36.6-21.2 2.4-5.3 2.8-7.5 2.8-15.2.1-12.7-2-18.3-9.8-26.1C396 3.8 385.4 1.1 357.8 1H346v48.5zm36.6-29c5.3 1.6 9.6 5.3 11.3 9.8 1.5 4 1.4 14.1-.3 18-2.9 7.1-12.1 11.2-23.3 10.5l-4.8-.3-.3-19.8L365 19h6.3c3.5 0 8.6.7 11.3 1.5zM428 49.3V98h20V76h7.8c13.8 0 25.6-4.4 32.9-12.3 7.3-7.9 9.9-16.2 9-28.3-.9-12.2-6.2-21.3-15.9-27.1-8.2-5-15.1-6.3-35.5-7L428 .7v48.6zM464.2 20c8.5 2.4 13.2 9.1 13.2 19 0 13.5-8 20-24.4 20h-5V19h6.3c3.4 0 7.9.5 9.9 1zM508.8 1.5c-.5.5-.8 22.4-.8 48.7V98h19.6c27 0 35.6-2.4 47.2-13.3C584.7 75.3 589 64.8 589 50c0-22.8-12.7-39.7-35-46.5-6-1.8-43.8-3.4-45.2-2zm44 20.4c10.3 4.6 15.5 13.6 15.6 27.1.1 10.2-1.4 15.5-5.7 21.2-5.1 6.8-12.5 10-24.8 10.6l-9.9.5V18.8l9.8.4c7.3.3 11 1 15 2.7z"/></svg>